<?xml version="1.0" encoding="utf-8"?>
<!-- Generator: Adobe Illustrator 26.0.0, SVG Export Plug-In . SVG Version: 6.00 Build 0)  -->
<svg version="1.1" id="Layer_1" xmlns="http://www.w3.org/2000/svg" xmlns:xlink="http://www.w3.org/1999/xlink" x="0px" y="0px"
	 viewBox="0 0 205.7 48" style="enable-background:new 0 0 205.7 48;" xml:space="preserve">
<style type="text/css">
	.st0{fill:#C6C2C2;}
	.st1{font-family:'FranklinGothic-Medium';}
	.st2{font-size:11.755px;}
	.st3{fill:#FFFFFF;}
</style>
<g>
	<image style="overflow:visible;" width="41" height="42" xlink:href="D61B2CC4.png"  transform="matrix(1 0 0 1 3 3)">
	</image>
	<text transform="matrix(1 0 0 1 6.0929 27.0986)" class="st0 st1 st2">LPDWI</text>
	<path class="st0" d="M38.4,32.3H7.9c-0.5,0-0.9-0.4-0.9-0.9v0c0-0.5,0.4-0.9,0.9-0.9h30.6c0.5,0,0.9,0.4,0.9,0.9v0
		C39.3,31.8,38.9,32.3,38.4,32.3z"/>
</g>
<g>
	<path class="st3" d="M59.1,13.5h3v21.1h11.7v2.6H59.1V13.5z"/>
	<path class="st3" d="M86.2,13.5h7.1c5.2,0,8.7,1.8,8.7,6.9c0,5-3.6,7.3-8.7,7.3h-4.1v9.4h-3V13.5z M92.9,25.3
		c4.1,0,6.1-1.5,6.1-4.9c0-3.4-2-4.5-6.1-4.5h-3.7v9.4H92.9z"/>
	<path class="st3" d="M113.9,13.5h5.8c7.1,0,10.9,4.2,10.9,11.7c0,7.5-3.9,11.9-10.8,11.9h-6V13.5z M119.5,34.6c5.4,0,8-3.5,8-9.4
		c0-5.9-2.7-9.2-8-9.2h-2.6v18.6H119.5z"/>
	<path class="st3" d="M139.3,13.5h3.4l1.7,14.8c0.2,2,0.4,3.1,0.5,5.5h0.1c0.4-2.3,0.7-3.5,1.2-5.4l2.3-8.8h2.9l2.2,8.8
		c0.5,1.9,0.7,3.1,1.2,5.4h0.1c0.1-2.3,0.2-3.5,0.4-5.4l1.7-14.9h3.2l-3.5,23.6H153l-2.3-9.5c-0.4-1.4-0.6-2.8-0.9-4.2h-0.1
		c-0.3,1.4-0.5,2.8-0.8,4.2l-2.3,9.5h-3.7L139.3,13.5z"/>
	<path class="st3" d="M170.6,34.6h5.9V16.1h-5.9v-2.6h14.8v2.6h-5.9v18.5h5.9v2.6h-14.8V34.6z"/>
</g>
</svg>
